<svg width="100" height="100" viewBox="0 0 100 100" fill="none" xmlns="http://www.w3.org/2000/svg">
<rect width="100" height="100" rx="20" fill="white"/>
<path d="M54.1968 34.64C54.8794 36.944 55.6048 39.3547 56.3728 41.872C57.1408 44.3467 57.9301 46.8427 58.7408 49.36C59.5941 51.8347 60.4261 54.288 61.2368 56.72C62.0901 59.1093 62.9008 61.3707 63.6688 63.504C64.3088 61.2 64.9274 58.704 65.5248 56.016C66.1221 53.2853 66.7194 50.4693 67.3168 47.568C67.9141 44.624 68.4901 41.6373 69.0448 38.608C69.6421 35.5787 70.1968 32.592 70.7088 29.648H79.0288C77.5354 37.6693 75.8714 45.392 74.0368 52.816C72.2021 60.1973 70.1541 67.2587 67.8928 74H60.2128C56.8848 65.3813 53.6634 55.9733 50.5488 45.776C48.9701 50.9387 47.3701 55.8453 45.7488 60.496C44.1274 65.1467 42.5061 69.648 40.8848 74H33.2048C30.9008 67.2587 28.8314 60.1973 26.9968 52.816C25.2048 45.392 23.5621 37.6693 22.0688 29.648H30.7088C31.2208 32.5493 31.7541 35.5147 32.3088 38.544C32.9061 41.5733 33.5034 44.56 34.1008 47.504C34.7408 50.4053 35.3808 53.2213 36.0208 55.952C36.6608 58.6827 37.3008 61.2 37.9408 63.504C38.7514 61.328 39.5621 59.0453 40.3728 56.656C41.2261 54.224 42.0581 51.7707 42.8688 49.296C43.6794 46.7787 44.4474 44.2827 45.1728 41.808C45.9408 39.3333 46.6448 36.944 47.2848 34.64H54.1968Z" fill="#2B7FFF"/>
</svg>
